<mxfile host="app.diagrams.net" modified="2020-10-28T12:41:54.816Z" agent="5.0 (X11)" etag="VUyyf0yYAIBZFLtIy7pY" version="13.8.5" type="github">
  <diagram id="F_BEhLT4oKOZ831gFgLm" name="Page-1">
    <mxGraphModel dx="619" dy="715" grid="1" gridSize="10" guides="1" tooltips="1" connect="1" arrows="1" fold="1" page="1" pageScale="1" pageWidth="850" pageHeight="1100" math="0" shadow="0">
      <root>
        <mxCell id="0" />
        <mxCell id="1" parent="0" />
        <mxCell id="HosS5gP8n9v2VMugwRI7-6" value="EMPLOYEE" style="rounded=0;whiteSpace=wrap;html=1;" vertex="1" parent="1">
          <mxGeometry x="180" y="310" width="180" height="40" as="geometry" />
        </mxCell>
        <mxCell id="HosS5gP8n9v2VMugwRI7-9" value="SUPERVISION" style="rhombus;whiteSpace=wrap;html=1;" vertex="1" parent="1">
          <mxGeometry x="170" y="490" width="200" height="70" as="geometry" />
        </mxCell>
        <mxCell id="HosS5gP8n9v2VMugwRI7-12" value="" style="endArrow=none;html=1;exitX=0;exitY=0.5;exitDx=0;exitDy=0;entryX=0.206;entryY=1.05;entryDx=0;entryDy=0;entryPerimeter=0;" edge="1" parent="1" source="HosS5gP8n9v2VMugwRI7-9" target="HosS5gP8n9v2VMugwRI7-6">
          <mxGeometry width="50" height="50" relative="1" as="geometry">
            <mxPoint x="220" y="350" as="sourcePoint" />
            <mxPoint x="270" y="300" as="targetPoint" />
          </mxGeometry>
        </mxCell>
        <mxCell id="HosS5gP8n9v2VMugwRI7-14" value="" style="endArrow=none;html=1;" edge="1" parent="1">
          <mxGeometry width="50" height="50" relative="1" as="geometry">
            <mxPoint x="220" y="350" as="sourcePoint" />
            <mxPoint x="315" y="350" as="targetPoint" />
          </mxGeometry>
        </mxCell>
        <mxCell id="HosS5gP8n9v2VMugwRI7-16" value="" style="endArrow=none;html=1;entryX=1;entryY=0.5;entryDx=0;entryDy=0;exitX=0.75;exitY=1;exitDx=0;exitDy=0;" edge="1" parent="1" source="HosS5gP8n9v2VMugwRI7-6" target="HosS5gP8n9v2VMugwRI7-9">
          <mxGeometry width="50" height="50" relative="1" as="geometry">
            <mxPoint x="310" y="360" as="sourcePoint" />
            <mxPoint x="350" y="420" as="targetPoint" />
          </mxGeometry>
        </mxCell>
        <mxCell id="HosS5gP8n9v2VMugwRI7-17" value="Fname" style="ellipse;whiteSpace=wrap;html=1;" vertex="1" parent="1">
          <mxGeometry x="70" y="60" width="120" height="40" as="geometry" />
        </mxCell>
        <mxCell id="HosS5gP8n9v2VMugwRI7-19" value="Minit" style="ellipse;whiteSpace=wrap;html=1;" vertex="1" parent="1">
          <mxGeometry x="200" y="60" width="120" height="40" as="geometry" />
        </mxCell>
        <mxCell id="HosS5gP8n9v2VMugwRI7-20" value="Lname" style="ellipse;whiteSpace=wrap;html=1;" vertex="1" parent="1">
          <mxGeometry x="330" y="60" width="120" height="40" as="geometry" />
        </mxCell>
        <mxCell id="HosS5gP8n9v2VMugwRI7-21" value="Name" style="ellipse;whiteSpace=wrap;html=1;" vertex="1" parent="1">
          <mxGeometry x="200" y="130" width="120" height="40" as="geometry" />
        </mxCell>
        <mxCell id="HosS5gP8n9v2VMugwRI7-22" value="Address" style="ellipse;whiteSpace=wrap;html=1;" vertex="1" parent="1">
          <mxGeometry x="330" y="130" width="120" height="40" as="geometry" />
        </mxCell>
        <mxCell id="HosS5gP8n9v2VMugwRI7-23" value="Bdate" style="ellipse;whiteSpace=wrap;html=1;" vertex="1" parent="1">
          <mxGeometry x="70" y="130" width="120" height="40" as="geometry" />
        </mxCell>
        <mxCell id="HosS5gP8n9v2VMugwRI7-25" value="" style="endArrow=none;html=1;entryX=1;entryY=1;entryDx=0;entryDy=0;exitX=0;exitY=0;exitDx=0;exitDy=0;" edge="1" parent="1" source="HosS5gP8n9v2VMugwRI7-21" target="HosS5gP8n9v2VMugwRI7-17">
          <mxGeometry width="50" height="50" relative="1" as="geometry">
            <mxPoint x="140" y="150" as="sourcePoint" />
            <mxPoint x="190" y="100" as="targetPoint" />
          </mxGeometry>
        </mxCell>
        <mxCell id="HosS5gP8n9v2VMugwRI7-26" value="" style="endArrow=none;html=1;entryX=0;entryY=1;entryDx=0;entryDy=0;exitX=1;exitY=0;exitDx=0;exitDy=0;" edge="1" parent="1" source="HosS5gP8n9v2VMugwRI7-21" target="HosS5gP8n9v2VMugwRI7-20">
          <mxGeometry width="50" height="50" relative="1" as="geometry">
            <mxPoint x="350" y="150" as="sourcePoint" />
            <mxPoint x="400" y="100" as="targetPoint" />
          </mxGeometry>
        </mxCell>
        <mxCell id="HosS5gP8n9v2VMugwRI7-28" value="" style="endArrow=none;html=1;entryX=0.725;entryY=1.05;entryDx=0;entryDy=0;entryPerimeter=0;exitX=0.306;exitY=0;exitDx=0;exitDy=0;exitPerimeter=0;" edge="1" parent="1" source="HosS5gP8n9v2VMugwRI7-6" target="HosS5gP8n9v2VMugwRI7-23">
          <mxGeometry width="50" height="50" relative="1" as="geometry">
            <mxPoint x="200" y="290" as="sourcePoint" />
            <mxPoint x="250" y="240" as="targetPoint" />
          </mxGeometry>
        </mxCell>
        <mxCell id="HosS5gP8n9v2VMugwRI7-30" value="&lt;u&gt;Ssn&lt;/u&gt;" style="ellipse;whiteSpace=wrap;html=1;" vertex="1" parent="1">
          <mxGeometry x="30" y="200" width="120" height="40" as="geometry" />
        </mxCell>
        <mxCell id="HosS5gP8n9v2VMugwRI7-31" value="Sex" style="ellipse;whiteSpace=wrap;html=1;" vertex="1" parent="1">
          <mxGeometry x="365" y="200" width="120" height="40" as="geometry" />
        </mxCell>
        <mxCell id="HosS5gP8n9v2VMugwRI7-32" value="" style="endArrow=none;html=1;entryX=1;entryY=1;entryDx=0;entryDy=0;exitX=0.3;exitY=0.05;exitDx=0;exitDy=0;exitPerimeter=0;" edge="1" parent="1" source="HosS5gP8n9v2VMugwRI7-6" target="HosS5gP8n9v2VMugwRI7-30">
          <mxGeometry width="50" height="50" relative="1" as="geometry">
            <mxPoint x="90" y="300" as="sourcePoint" />
            <mxPoint x="140" y="250" as="targetPoint" />
          </mxGeometry>
        </mxCell>
        <mxCell id="HosS5gP8n9v2VMugwRI7-35" value="" style="endArrow=none;html=1;entryX=0.5;entryY=1;entryDx=0;entryDy=0;exitX=0.45;exitY=-0.025;exitDx=0;exitDy=0;exitPerimeter=0;" edge="1" parent="1" source="HosS5gP8n9v2VMugwRI7-6" target="HosS5gP8n9v2VMugwRI7-21">
          <mxGeometry width="50" height="50" relative="1" as="geometry">
            <mxPoint x="250" y="280" as="sourcePoint" />
            <mxPoint x="300" y="230" as="targetPoint" />
          </mxGeometry>
        </mxCell>
        <mxCell id="HosS5gP8n9v2VMugwRI7-36" value="" style="endArrow=none;html=1;entryX=0.25;entryY=1.05;entryDx=0;entryDy=0;entryPerimeter=0;exitX=0.694;exitY=-0.1;exitDx=0;exitDy=0;exitPerimeter=0;" edge="1" parent="1" source="HosS5gP8n9v2VMugwRI7-6" target="HosS5gP8n9v2VMugwRI7-22">
          <mxGeometry width="50" height="50" relative="1" as="geometry">
            <mxPoint x="280" y="280" as="sourcePoint" />
            <mxPoint x="330" y="230" as="targetPoint" />
          </mxGeometry>
        </mxCell>
        <mxCell id="HosS5gP8n9v2VMugwRI7-37" value="" style="endArrow=none;html=1;entryX=0.25;entryY=0.925;entryDx=0;entryDy=0;entryPerimeter=0;exitX=0.711;exitY=-0.075;exitDx=0;exitDy=0;exitPerimeter=0;" edge="1" parent="1" source="HosS5gP8n9v2VMugwRI7-6" target="HosS5gP8n9v2VMugwRI7-31">
          <mxGeometry width="50" height="50" relative="1" as="geometry">
            <mxPoint x="400" y="320" as="sourcePoint" />
            <mxPoint x="450" y="270" as="targetPoint" />
          </mxGeometry>
        </mxCell>
        <mxCell id="HosS5gP8n9v2VMugwRI7-38" value="WORKS_FOR" style="rhombus;whiteSpace=wrap;html=1;" vertex="1" parent="1">
          <mxGeometry x="425" y="260" width="130" height="50" as="geometry" />
        </mxCell>
        <mxCell id="HosS5gP8n9v2VMugwRI7-41" value="" style="endArrow=none;html=1;exitX=1;exitY=0;exitDx=0;exitDy=0;entryX=0;entryY=0.5;entryDx=0;entryDy=0;" edge="1" parent="1" source="HosS5gP8n9v2VMugwRI7-6" target="HosS5gP8n9v2VMugwRI7-38">
          <mxGeometry width="50" height="50" relative="1" as="geometry">
            <mxPoint x="450" y="340" as="sourcePoint" />
            <mxPoint x="500" y="290" as="targetPoint" />
          </mxGeometry>
        </mxCell>
        <mxCell id="HosS5gP8n9v2VMugwRI7-42" value="MANAGES" style="rhombus;whiteSpace=wrap;html=1;" vertex="1" parent="1">
          <mxGeometry x="425" y="400" width="130" height="50" as="geometry" />
        </mxCell>
        <mxCell id="HosS5gP8n9v2VMugwRI7-43" value="" style="endArrow=none;html=1;entryX=0;entryY=0.5;entryDx=0;entryDy=0;exitX=1;exitY=1;exitDx=0;exitDy=0;" edge="1" parent="1" source="HosS5gP8n9v2VMugwRI7-6" target="HosS5gP8n9v2VMugwRI7-42">
          <mxGeometry width="50" height="50" relative="1" as="geometry">
            <mxPoint x="350" y="430" as="sourcePoint" />
            <mxPoint x="400" y="380" as="targetPoint" />
          </mxGeometry>
        </mxCell>
        <mxCell id="HosS5gP8n9v2VMugwRI7-44" value="Start_date" style="ellipse;whiteSpace=wrap;html=1;" vertex="1" parent="1">
          <mxGeometry x="388" y="340" width="75" height="20" as="geometry" />
        </mxCell>
        <mxCell id="HosS5gP8n9v2VMugwRI7-45" value="" style="endArrow=none;html=1;entryX=0.76;entryY=1.1;entryDx=0;entryDy=0;entryPerimeter=0;exitX=0;exitY=0;exitDx=0;exitDy=0;" edge="1" parent="1" source="HosS5gP8n9v2VMugwRI7-42" target="HosS5gP8n9v2VMugwRI7-44">
          <mxGeometry width="50" height="50" relative="1" as="geometry">
            <mxPoint x="410" y="460" as="sourcePoint" />
            <mxPoint x="460" y="410" as="targetPoint" />
          </mxGeometry>
        </mxCell>
        <mxCell id="HosS5gP8n9v2VMugwRI7-46" value="DEPARTMENT" style="rounded=0;whiteSpace=wrap;html=1;" vertex="1" parent="1">
          <mxGeometry x="640" y="330" width="120" height="30" as="geometry" />
        </mxCell>
        <mxCell id="HosS5gP8n9v2VMugwRI7-47" value="" style="endArrow=none;html=1;exitX=0;exitY=0;exitDx=0;exitDy=0;entryX=1;entryY=0.5;entryDx=0;entryDy=0;" edge="1" parent="1" source="HosS5gP8n9v2VMugwRI7-46" target="HosS5gP8n9v2VMugwRI7-38">
          <mxGeometry width="50" height="50" relative="1" as="geometry">
            <mxPoint x="560" y="360" as="sourcePoint" />
            <mxPoint x="560" y="290" as="targetPoint" />
          </mxGeometry>
        </mxCell>
        <mxCell id="HosS5gP8n9v2VMugwRI7-48" value="" style="endArrow=none;html=1;entryX=1;entryY=0.5;entryDx=0;entryDy=0;exitX=0;exitY=1;exitDx=0;exitDy=0;" edge="1" parent="1" source="HosS5gP8n9v2VMugwRI7-46" target="HosS5gP8n9v2VMugwRI7-42">
          <mxGeometry width="50" height="50" relative="1" as="geometry">
            <mxPoint x="410" y="460" as="sourcePoint" />
            <mxPoint x="460" y="410" as="targetPoint" />
          </mxGeometry>
        </mxCell>
        <mxCell id="HosS5gP8n9v2VMugwRI7-49" value="" style="endArrow=none;html=1;entryX=0;entryY=0.5;entryDx=0;entryDy=0;" edge="1" parent="1" target="HosS5gP8n9v2VMugwRI7-46">
          <mxGeometry width="50" height="50" relative="1" as="geometry">
            <mxPoint x="590" y="350" as="sourcePoint" />
            <mxPoint x="630" y="340" as="targetPoint" />
          </mxGeometry>
        </mxCell>
        <mxCell id="HosS5gP8n9v2VMugwRI7-51" value="Number_of_employees" style="ellipse;whiteSpace=wrap;html=1;dashed=1;" vertex="1" parent="1">
          <mxGeometry x="470" y="335" width="140" height="25" as="geometry" />
        </mxCell>
        <mxCell id="HosS5gP8n9v2VMugwRI7-52" value="Locations" style="ellipse;shape=doubleEllipse;whiteSpace=wrap;html=1;" vertex="1" parent="1">
          <mxGeometry x="650" y="130" width="100" height="60" as="geometry" />
        </mxCell>
        <mxCell id="HosS5gP8n9v2VMugwRI7-53" value="" style="endArrow=none;html=1;entryX=0.5;entryY=0;entryDx=0;entryDy=0;exitX=0.5;exitY=1;exitDx=0;exitDy=0;" edge="1" parent="1" source="HosS5gP8n9v2VMugwRI7-19" target="HosS5gP8n9v2VMugwRI7-21">
          <mxGeometry width="50" height="50" relative="1" as="geometry">
            <mxPoint x="450" y="350" as="sourcePoint" />
            <mxPoint x="500" y="300" as="targetPoint" />
          </mxGeometry>
        </mxCell>
        <mxCell id="HosS5gP8n9v2VMugwRI7-54" value="" style="endArrow=none;html=1;entryX=0.5;entryY=1;entryDx=0;entryDy=0;exitX=0.5;exitY=0;exitDx=0;exitDy=0;" edge="1" parent="1" source="HosS5gP8n9v2VMugwRI7-46" target="HosS5gP8n9v2VMugwRI7-52">
          <mxGeometry width="50" height="50" relative="1" as="geometry">
            <mxPoint x="680" y="320" as="sourcePoint" />
            <mxPoint x="730" y="270" as="targetPoint" />
          </mxGeometry>
        </mxCell>
        <mxCell id="HosS5gP8n9v2VMugwRI7-55" value="" style="endArrow=none;html=1;exitX=0.5;exitY=0;exitDx=0;exitDy=0;" edge="1" parent="1" source="HosS5gP8n9v2VMugwRI7-46">
          <mxGeometry width="50" height="50" relative="1" as="geometry">
            <mxPoint x="700" y="320" as="sourcePoint" />
            <mxPoint x="630" y="240" as="targetPoint" />
          </mxGeometry>
        </mxCell>
        <mxCell id="HosS5gP8n9v2VMugwRI7-58" value="&lt;u&gt;Name&lt;/u&gt;" style="ellipse;whiteSpace=wrap;html=1;" vertex="1" parent="1">
          <mxGeometry x="540" y="200" width="120" height="40" as="geometry" />
        </mxCell>
        <mxCell id="HosS5gP8n9v2VMugwRI7-59" value="&lt;u&gt;Number&lt;/u&gt;" style="ellipse;whiteSpace=wrap;html=1;" vertex="1" parent="1">
          <mxGeometry x="730" y="200" width="120" height="40" as="geometry" />
        </mxCell>
        <mxCell id="HosS5gP8n9v2VMugwRI7-60" value="" style="endArrow=none;html=1;entryX=0.275;entryY=1;entryDx=0;entryDy=0;entryPerimeter=0;exitX=0.5;exitY=0;exitDx=0;exitDy=0;" edge="1" parent="1" source="HosS5gP8n9v2VMugwRI7-46" target="HosS5gP8n9v2VMugwRI7-59">
          <mxGeometry width="50" height="50" relative="1" as="geometry">
            <mxPoint x="730" y="340" as="sourcePoint" />
            <mxPoint x="780" y="290" as="targetPoint" />
          </mxGeometry>
        </mxCell>
        <mxCell id="HosS5gP8n9v2VMugwRI7-62" value="CONTROLS" style="rhombus;whiteSpace=wrap;html=1;" vertex="1" parent="1">
          <mxGeometry x="630" y="440" width="130" height="50" as="geometry" />
        </mxCell>
        <mxCell id="HosS5gP8n9v2VMugwRI7-63" value="" style="endArrow=none;html=1;entryX=0.5;entryY=1;entryDx=0;entryDy=0;exitX=0.5;exitY=0;exitDx=0;exitDy=0;" edge="1" parent="1" source="HosS5gP8n9v2VMugwRI7-62" target="HosS5gP8n9v2VMugwRI7-46">
          <mxGeometry width="50" height="50" relative="1" as="geometry">
            <mxPoint x="670" y="430" as="sourcePoint" />
            <mxPoint x="720" y="380" as="targetPoint" />
          </mxGeometry>
        </mxCell>
        <mxCell id="HosS5gP8n9v2VMugwRI7-65" value="PROJECT" style="rounded=0;whiteSpace=wrap;html=1;" vertex="1" parent="1">
          <mxGeometry x="635" y="540" width="120" height="30" as="geometry" />
        </mxCell>
        <mxCell id="HosS5gP8n9v2VMugwRI7-66" value="" style="endArrow=none;html=1;entryX=0.5;entryY=1;entryDx=0;entryDy=0;" edge="1" parent="1" source="HosS5gP8n9v2VMugwRI7-65" target="HosS5gP8n9v2VMugwRI7-62">
          <mxGeometry width="50" height="50" relative="1" as="geometry">
            <mxPoint x="660" y="540" as="sourcePoint" />
            <mxPoint x="710" y="490" as="targetPoint" />
          </mxGeometry>
        </mxCell>
        <mxCell id="HosS5gP8n9v2VMugwRI7-67" value="WORKS_ON" style="rhombus;whiteSpace=wrap;html=1;" vertex="1" parent="1">
          <mxGeometry x="425" y="510" width="130" height="50" as="geometry" />
        </mxCell>
        <mxCell id="HosS5gP8n9v2VMugwRI7-68" value="" style="endArrow=none;html=1;exitX=0;exitY=0.5;exitDx=0;exitDy=0;entryX=0.75;entryY=1;entryDx=0;entryDy=0;" edge="1" parent="1" source="HosS5gP8n9v2VMugwRI7-67" target="HosS5gP8n9v2VMugwRI7-6">
          <mxGeometry width="50" height="50" relative="1" as="geometry">
            <mxPoint x="370" y="490" as="sourcePoint" />
            <mxPoint x="310" y="350" as="targetPoint" />
          </mxGeometry>
        </mxCell>
        <mxCell id="HosS5gP8n9v2VMugwRI7-69" value="Hours" style="ellipse;whiteSpace=wrap;html=1;" vertex="1" parent="1">
          <mxGeometry x="540" y="455" width="75" height="20" as="geometry" />
        </mxCell>
        <mxCell id="HosS5gP8n9v2VMugwRI7-70" value="" style="endArrow=none;html=1;exitX=1;exitY=0;exitDx=0;exitDy=0;entryX=0.28;entryY=0.9;entryDx=0;entryDy=0;entryPerimeter=0;" edge="1" parent="1" source="HosS5gP8n9v2VMugwRI7-67" target="HosS5gP8n9v2VMugwRI7-69">
          <mxGeometry width="50" height="50" relative="1" as="geometry">
            <mxPoint x="560" y="580" as="sourcePoint" />
            <mxPoint x="560" y="480" as="targetPoint" />
          </mxGeometry>
        </mxCell>
        <mxCell id="HosS5gP8n9v2VMugwRI7-71" value="" style="endArrow=none;html=1;entryX=0;entryY=0.5;entryDx=0;entryDy=0;exitX=1;exitY=0.5;exitDx=0;exitDy=0;" edge="1" parent="1" source="HosS5gP8n9v2VMugwRI7-67" target="HosS5gP8n9v2VMugwRI7-65">
          <mxGeometry width="50" height="50" relative="1" as="geometry">
            <mxPoint x="546" y="537" as="sourcePoint" />
            <mxPoint x="630" y="550" as="targetPoint" />
          </mxGeometry>
        </mxCell>
        <mxCell id="HosS5gP8n9v2VMugwRI7-72" value="" style="endArrow=none;html=1;exitX=0.5;exitY=0;exitDx=0;exitDy=0;" edge="1" parent="1" source="HosS5gP8n9v2VMugwRI7-74">
          <mxGeometry width="50" height="50" relative="1" as="geometry">
            <mxPoint x="640" y="620" as="sourcePoint" />
            <mxPoint x="690" y="570" as="targetPoint" />
          </mxGeometry>
        </mxCell>
        <mxCell id="HosS5gP8n9v2VMugwRI7-74" value="&lt;u&gt;Name&lt;/u&gt;" style="ellipse;whiteSpace=wrap;html=1;" vertex="1" parent="1">
          <mxGeometry x="565" y="600" width="75" height="20" as="geometry" />
        </mxCell>
        <mxCell id="HosS5gP8n9v2VMugwRI7-75" value="&lt;u&gt;Number&lt;/u&gt;" style="ellipse;whiteSpace=wrap;html=1;" vertex="1" parent="1">
          <mxGeometry x="565" y="640" width="75" height="20" as="geometry" />
        </mxCell>
        <mxCell id="HosS5gP8n9v2VMugwRI7-77" value="" style="endArrow=none;html=1;exitX=1;exitY=0;exitDx=0;exitDy=0;" edge="1" parent="1" source="HosS5gP8n9v2VMugwRI7-75">
          <mxGeometry width="50" height="50" relative="1" as="geometry">
            <mxPoint x="680" y="650" as="sourcePoint" />
            <mxPoint x="690" y="570" as="targetPoint" />
          </mxGeometry>
        </mxCell>
        <mxCell id="HosS5gP8n9v2VMugwRI7-78" value="Location" style="ellipse;whiteSpace=wrap;html=1;" vertex="1" parent="1">
          <mxGeometry x="662.5" y="660" width="75" height="20" as="geometry" />
        </mxCell>
        <mxCell id="HosS5gP8n9v2VMugwRI7-79" value="" style="endArrow=none;html=1;exitX=0.5;exitY=0;exitDx=0;exitDy=0;entryX=0.5;entryY=1;entryDx=0;entryDy=0;" edge="1" parent="1" source="HosS5gP8n9v2VMugwRI7-78" target="HosS5gP8n9v2VMugwRI7-65">
          <mxGeometry width="50" height="50" relative="1" as="geometry">
            <mxPoint x="690" y="650" as="sourcePoint" />
            <mxPoint x="730" y="600" as="targetPoint" />
          </mxGeometry>
        </mxCell>
        <mxCell id="HosS5gP8n9v2VMugwRI7-80" value="" style="endArrow=none;html=1;entryX=0.75;entryY=1;entryDx=0;entryDy=0;exitX=0.5;exitY=0;exitDx=0;exitDy=0;" edge="1" parent="1" source="HosS5gP8n9v2VMugwRI7-83" target="HosS5gP8n9v2VMugwRI7-6">
          <mxGeometry width="50" height="50" relative="1" as="geometry">
            <mxPoint x="430" y="610" as="sourcePoint" />
            <mxPoint x="450" y="580" as="targetPoint" />
          </mxGeometry>
        </mxCell>
        <mxCell id="HosS5gP8n9v2VMugwRI7-83" value="DEPENDS_OF" style="shape=rhombus;double=1;perimeter=rhombusPerimeter;whiteSpace=wrap;html=1;align=center;" vertex="1" parent="1">
          <mxGeometry x="295" y="610" width="270" height="160" as="geometry" />
        </mxCell>
        <mxCell id="HosS5gP8n9v2VMugwRI7-84" value="DEPENDENT" style="shape=ext;double=1;rounded=0;whiteSpace=wrap;html=1;" vertex="1" parent="1">
          <mxGeometry x="355" y="840" width="120" height="40" as="geometry" />
        </mxCell>
        <mxCell id="HosS5gP8n9v2VMugwRI7-88" value="" style="shape=link;html=1;entryX=0.5;entryY=0;entryDx=0;entryDy=0;exitX=0.5;exitY=1;exitDx=0;exitDy=0;" edge="1" parent="1" source="HosS5gP8n9v2VMugwRI7-83" target="HosS5gP8n9v2VMugwRI7-84">
          <mxGeometry width="100" relative="1" as="geometry">
            <mxPoint x="380" y="800" as="sourcePoint" />
            <mxPoint x="480" y="800" as="targetPoint" />
          </mxGeometry>
        </mxCell>
        <mxCell id="HosS5gP8n9v2VMugwRI7-90" value="Name" style="ellipse;whiteSpace=wrap;html=1;" vertex="1" parent="1">
          <mxGeometry x="180" y="920" width="75" height="20" as="geometry" />
        </mxCell>
        <mxCell id="HosS5gP8n9v2VMugwRI7-91" value="Relationship" style="ellipse;whiteSpace=wrap;html=1;" vertex="1" parent="1">
          <mxGeometry x="502.5" y="920" width="117.5" height="20" as="geometry" />
        </mxCell>
        <mxCell id="HosS5gP8n9v2VMugwRI7-92" value="Birth_date" style="ellipse;whiteSpace=wrap;html=1;" vertex="1" parent="1">
          <mxGeometry x="388" y="920" width="75" height="20" as="geometry" />
        </mxCell>
        <mxCell id="HosS5gP8n9v2VMugwRI7-93" value="Sex" style="ellipse;whiteSpace=wrap;html=1;" vertex="1" parent="1">
          <mxGeometry x="285" y="920" width="75" height="20" as="geometry" />
        </mxCell>
        <mxCell id="HosS5gP8n9v2VMugwRI7-97" value="" style="endArrow=none;html=1;entryX=0;entryY=1;entryDx=0;entryDy=0;exitX=0.5;exitY=0;exitDx=0;exitDy=0;" edge="1" parent="1" source="HosS5gP8n9v2VMugwRI7-90" target="HosS5gP8n9v2VMugwRI7-84">
          <mxGeometry width="50" height="50" relative="1" as="geometry">
            <mxPoint x="230" y="910" as="sourcePoint" />
            <mxPoint x="350" y="880" as="targetPoint" />
          </mxGeometry>
        </mxCell>
        <mxCell id="HosS5gP8n9v2VMugwRI7-98" value="" style="endArrow=none;html=1;entryX=0.25;entryY=1;entryDx=0;entryDy=0;exitX=0.613;exitY=0.1;exitDx=0;exitDy=0;exitPerimeter=0;" edge="1" parent="1" source="HosS5gP8n9v2VMugwRI7-93" target="HosS5gP8n9v2VMugwRI7-84">
          <mxGeometry width="50" height="50" relative="1" as="geometry">
            <mxPoint x="340" y="940" as="sourcePoint" />
            <mxPoint x="390" y="890" as="targetPoint" />
          </mxGeometry>
        </mxCell>
        <mxCell id="HosS5gP8n9v2VMugwRI7-99" value="" style="endArrow=none;html=1;entryX=0.567;entryY=1;entryDx=0;entryDy=0;entryPerimeter=0;exitX=0.5;exitY=0;exitDx=0;exitDy=0;" edge="1" parent="1" source="HosS5gP8n9v2VMugwRI7-92" target="HosS5gP8n9v2VMugwRI7-84">
          <mxGeometry width="50" height="50" relative="1" as="geometry">
            <mxPoint x="410" y="930" as="sourcePoint" />
            <mxPoint x="460" y="880" as="targetPoint" />
          </mxGeometry>
        </mxCell>
        <mxCell id="HosS5gP8n9v2VMugwRI7-100" value="" style="endArrow=none;html=1;exitX=1;exitY=1;exitDx=0;exitDy=0;entryX=0.5;entryY=0;entryDx=0;entryDy=0;" edge="1" parent="1" source="HosS5gP8n9v2VMugwRI7-84" target="HosS5gP8n9v2VMugwRI7-91">
          <mxGeometry width="50" height="50" relative="1" as="geometry">
            <mxPoint x="510" y="910" as="sourcePoint" />
            <mxPoint x="560" y="860" as="targetPoint" />
          </mxGeometry>
        </mxCell>
        <mxCell id="HosS5gP8n9v2VMugwRI7-101" value="(1,1)" style="text;html=1;align=center;verticalAlign=middle;resizable=0;points=[];autosize=1;" vertex="1" parent="1">
          <mxGeometry x="365" y="810" width="40" height="20" as="geometry" />
        </mxCell>
        <mxCell id="HosS5gP8n9v2VMugwRI7-102" value="Dependent" style="text;html=1;align=center;verticalAlign=middle;resizable=0;points=[];autosize=1;" vertex="1" parent="1">
          <mxGeometry x="425" y="810" width="70" height="20" as="geometry" />
        </mxCell>
        <mxCell id="HosS5gP8n9v2VMugwRI7-103" value="&lt;div&gt;(O,N)&lt;/div&gt;&lt;div&gt;Employee&lt;br&gt;&lt;/div&gt;" style="text;html=1;align=center;verticalAlign=middle;resizable=0;points=[];autosize=1;" vertex="1" parent="1">
          <mxGeometry x="335" y="560" width="70" height="30" as="geometry" />
        </mxCell>
        <mxCell id="HosS5gP8n9v2VMugwRI7-104" value="(O,N)" style="text;html=1;align=center;verticalAlign=middle;resizable=0;points=[];autosize=1;" vertex="1" parent="1">
          <mxGeometry x="140" y="420" width="40" height="20" as="geometry" />
        </mxCell>
        <mxCell id="HosS5gP8n9v2VMugwRI7-105" value="Supervisor" style="text;html=1;align=center;verticalAlign=middle;resizable=0;points=[];autosize=1;" vertex="1" parent="1">
          <mxGeometry x="110" y="450" width="70" height="20" as="geometry" />
        </mxCell>
        <mxCell id="HosS5gP8n9v2VMugwRI7-106" value="&lt;div&gt;(O,N)&lt;/div&gt;&lt;div&gt;Supervisee&lt;br&gt;&lt;/div&gt;" style="text;html=1;align=center;verticalAlign=middle;resizable=0;points=[];autosize=1;" vertex="1" parent="1">
          <mxGeometry x="275" y="440" width="80" height="30" as="geometry" />
        </mxCell>
        <mxCell id="HosS5gP8n9v2VMugwRI7-107" value="(1,1)" style="text;html=1;align=center;verticalAlign=middle;resizable=0;points=[];autosize=1;" vertex="1" parent="1">
          <mxGeometry x="370" y="270" width="40" height="20" as="geometry" />
        </mxCell>
        <mxCell id="HosS5gP8n9v2VMugwRI7-108" value="&lt;div&gt;(0,1)&lt;/div&gt;" style="text;html=1;align=center;verticalAlign=middle;resizable=0;points=[];autosize=1;" vertex="1" parent="1">
          <mxGeometry x="348" y="370" width="40" height="20" as="geometry" />
        </mxCell>
        <mxCell id="HosS5gP8n9v2VMugwRI7-109" value="&lt;div&gt;Manager&lt;/div&gt;" style="text;html=1;align=center;verticalAlign=middle;resizable=0;points=[];autosize=1;" vertex="1" parent="1">
          <mxGeometry x="350" y="390" width="60" height="20" as="geometry" />
        </mxCell>
        <mxCell id="HosS5gP8n9v2VMugwRI7-110" value="Employee" style="text;html=1;align=center;verticalAlign=middle;resizable=0;points=[];autosize=1;" vertex="1" parent="1">
          <mxGeometry x="375" y="300" width="70" height="20" as="geometry" />
        </mxCell>
        <mxCell id="HosS5gP8n9v2VMugwRI7-111" value="&lt;div&gt;Department&lt;/div&gt;" style="text;html=1;align=center;verticalAlign=middle;resizable=0;points=[];autosize=1;" vertex="1" parent="1">
          <mxGeometry x="520" y="300" width="80" height="20" as="geometry" />
        </mxCell>
        <mxCell id="HosS5gP8n9v2VMugwRI7-112" value="&lt;div&gt;Department&lt;/div&gt;&lt;div&gt;Managed&lt;br&gt;&lt;/div&gt;" style="text;html=1;align=center;verticalAlign=middle;resizable=0;points=[];autosize=1;" vertex="1" parent="1">
          <mxGeometry x="520" y="365" width="80" height="30" as="geometry" />
        </mxCell>
        <mxCell id="HosS5gP8n9v2VMugwRI7-113" value="(4,N)" style="text;html=1;align=center;verticalAlign=middle;resizable=0;points=[];autosize=1;" vertex="1" parent="1">
          <mxGeometry x="582.5" y="280" width="40" height="20" as="geometry" />
        </mxCell>
        <mxCell id="HosS5gP8n9v2VMugwRI7-114" value="(1,1)" style="text;html=1;align=center;verticalAlign=middle;resizable=0;points=[];autosize=1;" vertex="1" parent="1">
          <mxGeometry x="595" y="390" width="40" height="20" as="geometry" />
        </mxCell>
        <mxCell id="HosS5gP8n9v2VMugwRI7-115" value="&lt;div&gt;(1,N)&lt;/div&gt;&lt;div&gt;&amp;nbsp;&amp;nbsp;&amp;nbsp;&amp;nbsp; Worker&lt;br&gt;&lt;/div&gt;" style="text;html=1;align=center;verticalAlign=middle;resizable=0;points=[];autosize=1;" vertex="1" parent="1">
          <mxGeometry x="385" y="475" width="70" height="30" as="geometry" />
        </mxCell>
        <mxCell id="HosS5gP8n9v2VMugwRI7-116" value="&lt;div&gt;Controlling&lt;/div&gt;&lt;div&gt;Department&lt;br&gt;&lt;/div&gt;" style="text;html=1;align=center;verticalAlign=middle;resizable=0;points=[];autosize=1;" vertex="1" parent="1">
          <mxGeometry x="690" y="365" width="80" height="30" as="geometry" />
        </mxCell>
        <mxCell id="HosS5gP8n9v2VMugwRI7-117" value="(0,N)" style="text;html=1;align=center;verticalAlign=middle;resizable=0;points=[];autosize=1;" vertex="1" parent="1">
          <mxGeometry x="660" y="370" width="40" height="20" as="geometry" />
        </mxCell>
        <mxCell id="HosS5gP8n9v2VMugwRI7-118" value="&lt;div&gt;Controled&lt;/div&gt;&lt;div&gt;Project&lt;/div&gt;" style="text;html=1;align=center;verticalAlign=middle;resizable=0;points=[];autosize=1;" vertex="1" parent="1">
          <mxGeometry x="695" y="505" width="70" height="30" as="geometry" />
        </mxCell>
        <mxCell id="HosS5gP8n9v2VMugwRI7-119" value="(1,1)" style="text;html=1;align=center;verticalAlign=middle;resizable=0;points=[];autosize=1;" vertex="1" parent="1">
          <mxGeometry x="640" y="510" width="40" height="20" as="geometry" />
        </mxCell>
        <mxCell id="HosS5gP8n9v2VMugwRI7-120" value="&lt;div&gt;Project&lt;/div&gt;" style="text;html=1;align=center;verticalAlign=middle;resizable=0;points=[];autosize=1;" vertex="1" parent="1">
          <mxGeometry x="560" y="515" width="50" height="20" as="geometry" />
        </mxCell>
        <mxCell id="HosS5gP8n9v2VMugwRI7-121" value="(1,N)" style="text;html=1;align=center;verticalAlign=middle;resizable=0;points=[];autosize=1;" vertex="1" parent="1">
          <mxGeometry x="555" y="545" width="40" height="20" as="geometry" />
        </mxCell>
      </root>
    </mxGraphModel>
  </diagram>
</mxfile>
